<svg id="Capa_1" data-name="Capa 1" xmlns="http://www.w3.org/2000/svg" viewBox="0 0 932.95 934.41"><defs><style>.cls-1{fill:#777;}.cls-2{fill:#01adeb;}.cls-3{fill:#30bef0;}.cls-4,.cls-5,.cls-6{stroke:#fff;stroke-miterlimit:10;}.cls-4{stroke-width:4px;}.cls-5{stroke-width:14px;}</style></defs><g id="g1519"><path class="cls-1" d="M191.5,439.16h0c0,182,147.5,329.44,329.45,329.44a330.67,330.67,0,0,0,37.55-2.15V795a360.58,360.58,0,0,1-68.39,6.54c-198.75,0-359.87-161.11-359.87-359.86S291.36,81.76,490.11,81.76A359.85,359.85,0,0,1,837.59,348.7,329.44,329.44,0,0,0,521,109.71h0C339,109.72,191.49,257.22,191.5,439.16Z" transform="translate(-62.03 -54.92)"/><path class="cls-2" d="M849,440.65q-.12,3.44-.33,6.85c0,.68-.08,1.36-.12,2,0-.68-.08-1.36-.13-2q-.54-8.56-1.55-17c-18.28-153.89-149-271.58-306-271.65-170.26,0-308.27,138-308.27,308.27A308.27,308.27,0,0,0,342.19,702.76a321.34,321.34,0,0,1-135.82-262.1v0c0-177.46,143.88-321.32,321.33-321.32,174.07,0,315.81,138.42,321.17,311.18Q849,435.56,849,440.65Z" transform="translate(-62.03 -54.92)"/><path class="cls-3" d="M488.76,813.35a371.91,371.91,0,0,0,69.74-6.62v33.61a399,399,0,0,1-97.72,12.07h0A398.76,398.76,0,0,1,62,453.66C62,233.44,240.56,54.92,460.77,54.92a398.76,398.76,0,0,1,286.8,121.81A371.15,371.15,0,0,0,488.76,71.08c-205,0-371.13,166.16-371.13,371.14S283.79,813.35,488.76,813.35Z" transform="translate(-62.03 -54.92)"/></g><path d="M437.67,549a118.23,118.23,0,0,1-46.39-44q-16.89-28.14-16.88-63.62t16.88-63.62a118.33,118.33,0,0,1,46.39-44q29.5-15.85,66.34-15.86,31,0,56.11,10.92a112.32,112.32,0,0,1,42.13,31.38l-35.48,32.75q-24.22-28-60-28-22.19,0-39.57,9.73a69,69,0,0,0-27.11,27.11q-9.72,17.4-9.73,39.57t9.73,39.57A69.12,69.12,0,0,0,467.17,508q17.4,9.72,39.57,9.73,35.81,0,60-28.31l35.48,32.75A110.66,110.66,0,0,1,560,553.91q-25.25,10.9-56.28,10.91Q467.16,564.8,437.67,549Z" transform="translate(-62.03 -54.92)"/><path class="cls-4" d="M993,760c0-.19,0-.36,0-.54V760Z" transform="translate(-62.03 -54.92)"/><path class="cls-5" d="M969.33,805v88.66h0c-1.17,49.07-88.23,88.66-195.45,88.66s-194.29-39.59-195.45-88.66h0V805Z" transform="translate(-62.03 -54.92)"/><path class="cls-5" d="M969.33,716.34V805h0c-1.17,49.06-88.23,88.66-195.45,88.66S579.58,854.07,578.42,805h0V716.34Z" transform="translate(-62.03 -54.92)"/><path class="cls-5" d="M969.33,627.68v88.66h0C968.15,765.41,881.09,805,773.87,805s-194.29-39.6-195.45-88.67h0V627.68Z" transform="translate(-62.03 -54.92)"/><ellipse class="cls-5" cx="711.84" cy="571.75" rx="195.46" ry="89.67"/><path class="cls-6" d="M848.7,447.5c0,.68-.08,1.36-.12,2,0-.68-.08-1.36-.13-2Z" transform="translate(-62.03 -54.92)"/><path class="cls-6" d="M849,440.65q-.12,3.44-.33,6.85c0,.68-.08,1.36-.12,2,0-.68-.08-1.36-.13-2q-.54-8.56-1.55-17h2Q849,435.56,849,440.65Z" transform="translate(-62.03 -54.92)"/></svg>