<?xml version="1.0" encoding="utf-8"?>
<!-- Generator: Adobe Illustrator 24.3.0, SVG Export Plug-In . SVG Version: 6.00 Build 0)  -->
<svg version="1.1" id="Capa_1" xmlns="http://www.w3.org/2000/svg" xmlns:xlink="http://www.w3.org/1999/xlink" x="0px" y="0px"
	 viewBox="0 0 1000 1000" style="enable-background:new 0 0 1000 1000;" xml:space="preserve">
<style type="text/css">
	.st0{fill:#777777;}
	.st1{fill:#01ADEB;}
	.st2{fill:#30BEF0;}
	.st3{fill:#FFFFFF;}
</style>
<rect width="100%" height="100%" fill="white" />
<g>
	<g id="g1519" transform="translate(2.0321989,0.88921889)">
		<path class="st0" d="M180.2,433.64v0.01c0,181.6,147.22,328.82,328.83,328.81c61.09-0.02,118.59-16.79,167.91-46.16l-18.66,30.56
			c-53.09,30.83-114.67,48.4-180.04,48.42c-198.37,0-359.18-160.81-359.18-359.18S279.87,76.91,478.24,76.91
			c162.59,0.08,304.86,109.37,346.84,266.44c-40.3-141.14-169.27-238.48-316.05-238.54c-0.01,0-0.01,0-0.02,0
			C327.41,104.82,180.19,252.04,180.2,433.64z"/>
		<path class="st1" d="M826.76,356.46c-3.27-1.79-6.72-3.29-10.32-4.45c-44.27-116.31-156.75-198.1-287.46-198.15
			c-169.93,0-307.69,137.75-307.69,307.68c0,90.68,40.01,176.74,109.32,235.2c-84.94-60.06-135.48-157.58-135.56-261.61v-0.01
			c0-177.13,143.59-320.72,320.72-320.71h0.01C665.76,114.41,791.69,217.36,826.76,356.46z"/>
		<path class="st2" d="M476.9,807.13c61.17-0.06,118.93-14.96,169.82-41.32l-25.01,40.96c-52.25,25.21-110.84,39.34-172.74,39.34
			c-0.01,0-0.01,0-0.02,0c-109.9,0-209.4-44.55-281.42-116.57C95.51,657.51,50.97,558.01,50.97,448.11
			c0-219.8,178.19-397.99,398-397.98c107.96,0.02,211.27,43.9,286.25,121.57C666.15,104.23,573.46,66.4,476.9,66.26
			c-204.59,0-370.44,165.85-370.44,370.43C106.46,641.28,272.31,807.13,476.9,807.13z"/>
		<g id="flowRoot1517" transform="matrix(0.37854911,0,0,0.37854911,-80.657728,-70.57895)">
		</g>
	</g>
	<g>
		<path d="M498.23,513.85c-14.79,0-27.97-3.24-39.57-9.72c-11.6-6.48-20.64-15.52-27.12-27.12c-6.48-11.6-9.72-24.78-9.72-39.56
			c0-14.78,3.24-27.97,9.72-39.57c6.48-11.6,15.52-20.64,27.12-27.12c11.6-6.48,24.78-9.72,39.57-9.72
			c23.87,0,43.88,9.33,60.03,27.97l35.47-32.75c-11.37-13.64-25.41-24.1-42.12-31.38c-16.71-7.27-35.42-10.91-56.11-10.91
			c-24.56,0-46.68,5.29-66.34,15.86c-19.68,10.57-35.14,25.24-46.39,44c-11.26,18.76-16.89,39.97-16.89,63.62
			c0,23.65,5.63,44.85,16.89,63.61c11.25,18.76,26.71,33.43,46.39,44c19.66,10.58,41.66,15.86,66,15.86
			c20.69,0,39.45-3.64,56.28-10.91c16.82-7.28,30.92-17.85,42.29-31.73l-35.47-32.74C542.11,504.42,522.1,513.85,498.23,513.85z"/>
	</g>
</g>
<path d="M699,741"/>
<path d="M841,787"/>
<g>
	<g>
		<path d="M915.2,949H626.8c-26.94,0-43.38-29.9-28.67-52.46C665,794,676,778,709,725c0.82-56.46-0.37-111.58-0.28-167H690.5
			c-5.11,0-9.74-2.07-13.08-5.42c-3.35-3.34-5.42-7.97-5.42-13.08c0-10.22,8.28-18.5,18.5-18.5h161c10.22,0,18.5,8.28,18.5,18.5
			c0,5.11-2.07,9.74-5.42,13.08c-3.34,3.35-7.97,5.42-13.08,5.42h-18.22c0.09,55.42-1.1,110.54-0.28,167c33,53,44,69,110.87,171.54
			C958.58,919.1,942.14,949,915.2,949z"/>
	</g>
	<g>
		<path class="st3" d="M638.25,884.6C626,901.35,639.59,925,660.33,925h222.09c20.75,0,33.41-23.02,22.08-40.4L856,816
			c-14-16-31,7-90,8c-14,2-65-27-84.93-8C666.8,838.87,652.52,861.73,638.25,884.6z"/>
	</g>
	<g>
		<circle cx="764.5" cy="484.5" r="22.5"/>
	</g>
	<g>
		<circle cx="800" cy="410" r="33"/>
	</g>
</g>
</svg>
