<?xml version="1.0" encoding="utf-8"?>
<!-- Generator: Adobe Illustrator 24.3.0, SVG Export Plug-In . SVG Version: 6.00 Build 0)  -->
<svg version="1.1" id="Capa_1" xmlns="http://www.w3.org/2000/svg" xmlns:xlink="http://www.w3.org/1999/xlink" x="0px" y="0px"
	 viewBox="0 0 1000 1000" style="enable-background:new 0 0 1000 1000;" xml:space="preserve">
<style type="text/css">
	.st0{fill:#FFFFFF;}
	.st1{fill:#777777;}
	.st2{fill:#01ADEB;}
	.st3{fill:#30BEF0;}
</style>
<rect class="st0" width="1000" height="1000"/>
<g id="g1519" transform="translate(2.0321989,0.88921889)">
	<path id="path1505" class="st1" d="M533.8,41.64c-244.61,0-442.9,198.29-442.9,442.9c0,244.61,198.29,442.9,442.9,442.9
		c228.69-0.08,419.72-174.25,440.86-401.96c-22.43,205.63-196.05,361.4-402.9,361.49c-223.93,0.01-405.46-181.52-405.47-405.45
		c0,0,0-0.01,0-0.01C166.28,257.58,347.81,76.05,571.74,76.04c0.01,0,0.01,0,0.02,0c180.99,0.07,340.02,120.1,389.71,294.13
		C909.7,176.49,734.29,41.74,533.8,41.64L533.8,41.64z"/>
	<path id="path1507" class="st2" d="M580.07,87.87C361.67,87.87,184.61,264.92,184.6,483.33c0,0.01,0,0.01,0,0.02
		c0.11,128.27,62.42,248.52,167.16,322.58c-85.47-72.08-134.8-178.2-134.8-290.01c0-209.53,169.86-379.4,379.4-379.4
		c201.07,0.08,367.16,157.02,378.63,357.76c0.23-3.64,0.42-7.29,0.55-10.94C975.54,264.94,798.49,87.88,580.07,87.87
		C580.08,87.87,580.08,87.87,580.07,87.87L580.07,87.87z"/>
	<path id="path1509" class="st3" d="M497.7,8.61C226.67,8.61,6.95,228.32,6.95,499.35c0,0,0,0,0,0
		c0,271.03,219.71,490.75,490.74,490.76c0.01,0,0.01,0,0.02,0c271.03,0,490.75-219.72,490.74-490.75c0,0,0,0,0,0
		c-0.03-0.95-0.06-1.9-0.09-2.85c-6.09,247.65-208.49,445.3-456.21,445.53c-252.27,0-456.77-204.5-456.77-456.77
		c0-252.27,204.5-456.77,456.77-456.77C651.2,28.67,765.5,75.32,850.67,158.52C758.22,62.75,630.82,8.64,497.7,8.61L497.7,8.61z"/>
	<g id="flowRoot1517" transform="matrix(0.37854911,0,0,0.37854911,-80.657728,-70.57895)">
	</g>
</g>
<g>
	<path d="M491.05,608.15c-19.66-10.57-35.11-25.23-46.36-43.98c-11.25-18.75-16.87-39.94-16.87-63.58
		c0-23.63,5.62-44.83,16.87-63.58c11.25-18.75,26.7-33.41,46.36-43.98c19.66-10.57,41.76-15.85,66.3-15.85
		c20.68,0,39.37,3.64,56.08,10.91c16.71,7.27,30.74,17.73,42.1,31.36l-35.45,32.73c-16.14-18.63-36.13-27.95-60-27.95
		c-14.78,0-27.95,3.24-39.54,9.72c-11.59,6.47-20.63,15.51-27.1,27.1s-9.72,24.77-9.72,39.54c0,14.78,3.24,27.96,9.72,39.55
		s15.51,20.62,27.1,27.1c11.59,6.48,24.77,9.72,39.54,9.72c23.86,0,43.86-9.43,60-28.29l35.45,32.73
		c-11.37,13.87-25.46,24.43-42.27,31.7c-16.82,7.27-35.57,10.91-56.25,10.91C532.69,624,510.7,618.71,491.05,608.15z"/>
</g>
</svg>
